<?xml version="1.0" encoding="UTF-8"?>
<svg id="Capa_2" data-name="Capa 2" xmlns="http://www.w3.org/2000/svg" xmlns:xlink="http://www.w3.org/1999/xlink" viewBox="0 0 120 80">
  <defs>
    <style>
      .cls-1 {
        fill: url(#Degradado_sin_nombre_12);
      }

      .cls-1, .cls-2, .cls-3, .cls-4 {
        stroke-width: 0px;
      }

      .cls-2 {
        fill: #9dcced;
      }

      .cls-3 {
        fill: url(#Degradado_sin_nombre_11);
      }

      .cls-4 {
        fill: #213147;
      }
    </style>
    <linearGradient id="Degradado_sin_nombre_11" data-name="Degradado sin nombre 11" x1="-18.75" y1="23.3" x2="47.08" y2="42.27" gradientUnits="userSpaceOnUse">
      <stop offset="0" stop-color="#fff"/>
      <stop offset=".11" stop-color="#c7ebff"/>
      <stop offset=".23" stop-color="#98daff"/>
      <stop offset=".35" stop-color="#6ecbff"/>
      <stop offset=".47" stop-color="#4dbfff"/>
      <stop offset=".6" stop-color="#33b5ff"/>
      <stop offset=".72" stop-color="#20afff"/>
      <stop offset=".86" stop-color="#15abff"/>
      <stop offset="1" stop-color="#12aaff"/>
    </linearGradient>
    <linearGradient id="Degradado_sin_nombre_12" data-name="Degradado sin nombre 12" x1="140.2" y1="30.38" x2="69.96" y2="43.75" gradientUnits="userSpaceOnUse">
      <stop offset="0" stop-color="#fff"/>
      <stop offset=".09" stop-color="#d6d9dd"/>
      <stop offset=".21" stop-color="#a7adb6"/>
      <stop offset=".33" stop-color="#7d8793"/>
      <stop offset=".46" stop-color="#5c6778"/>
      <stop offset=".58" stop-color="#424f62"/>
      <stop offset=".71" stop-color="#2f3e53"/>
      <stop offset=".85" stop-color="#243449"/>
      <stop offset="1" stop-color="#213147"/>
    </linearGradient>
  </defs>
  <g id="Capa_2-2" data-name="Capa 2">
    <g>
      <path class="cls-3" d="M0,10.04l3.3,46.34s10.06-12.7,24.86-4.81c0,0,.56.57,1.24-.04s4.06-3.62,4.06-3.62c0,0,3.04-2.58,7.7.72,4.66,3.3,1.61,5.74-1.8,9.15s-2.85,3.05-2.85,3.05c0,0-.34.29-.19.54s.68.32.98,0,6.25-6.35,6.25-6.35c0,0,3.07-2.98,7.87-.07s1.58,6.81.68,7.78-5.74,5.7-5.74,5.7c0,0-.53.65-.26.9s.79-.25.79-.25l6.61-6.31s3.42-2.58,6.53,1.86-2.93,7.78-2.93,7.78c0,0,.26,1.69,3.3,2.4s8.82-.72,7.32-5.24l-6.18-7.14s-.73-.93.4-1.83,2.52.57,2.52.57l8.22,8.32s2.59,2.62,7.1.29,2.03-5.7,2.03-5.7l-11.45-12.27s-.68-.97.19-2.04,2.22.22,2.22.22l12.8,13.13s3.27,2.83,7.25.04,1.69-5.42,1.69-5.42l-24.48-26.18s-1.54-1.76-4.28-.57-6.23,2.55-10.25,2.65c-4.02.11-9.61-1.69-9.95-7.89,0,0-.04-2.4,1.8-2.87s11.94-5.27,11.94-5.27c0,0-5.63-3.73-11.34-1.33-5.71,2.4-9.8,4.95-14.42,5.74s-9.35-.18-13.52-1.86C15.81,18.47,0,10.04,0,10.04Z"/>
      <path class="cls-1" d="M120,62.26s-12.62-8.18-21.18-5.31l-26.32-27.76s-3.46-3.62-8.19-1.15c-4.73,2.47-11.68,4.45-15.66-1.18,0,0-.71-1.22.49-1.76,1.2-.54,19.41-8.79,19.41-8.79,0,0,3.49-2.08,7.44.18,3.94,2.26,18.32,9.36,18.32,9.36,0,0,5.03,2.87,11.53.04,6.49-2.83,10.1-4.95,10.1-4.95l4.06,41.32Z"/>
      <path class="cls-4" d="M30.53,55.19l4.73-4.81s1.46-1.08,3.49.32,1.24,2.37,1.24,2.37c0,0-4.09,4.95-5.18,5.49s-1.8,1.14-3.53-.36-.75-3.01-.75-3.01Z"/>
      <path class="cls-4" d="M38.82,63.91c.12-.18,6.61-6.63,6.61-6.63,0,0,1.58-1.4,3.64,0s1.13,2.73,1.13,2.73c0,0-4.09,5.67-6.42,7.17s-4.39-.5-4.39-.5c0,0-1.35-1.58-.56-2.76Z"/>
      <path class="cls-4" d="M49.86,70.36l4.69-4.84s1.24-1.08,2.85.29c1.61,1.36.3,2.55.3,2.55l-4.09,4.34s-.15.79-2.52,0c0,0-2.36-1.17-1.24-2.33Z"/>
      <path class="cls-2" d="M99.22,68.06c.32.55.5,1.18.5,1.85,0,2.11-1.79,3.83-4.01,3.83-1.68,0-3.12-.99-3.71-2.39l-29.78,8.66-.22-.68,29.78-8.66c-.05-.24-.08-.49-.08-.75,0-2.11,1.79-3.83,4-3.83,1.08,0,2.06.4,2.77,1.07l11.18-8.22.73.91-11.18,8.22Z"/>
      <path class="cls-2" d="M91.82,14.44c0,.95-.81,1.72-1.8,1.72s-1.8-.77-1.8-1.72c0-.33.1-.64.27-.9l-15.65-7.87c-.67,1.31-2.09,2.22-3.72,2.22-.19,0-.37-.01-.55-.03l-4.16,8.15-.85-.4,4.07-7.98c-1.55-.57-2.65-2-2.65-3.68,0-.16,0-.32.03-.47l-19.51.95c-.09.95-.92,1.7-1.94,1.7-.62,0-1.18-.28-1.54-.72l-19.59,8.05c.16.27.25.58.25.91,0,1.02-.86,1.84-1.93,1.84s-1.93-.82-1.93-1.84.86-1.84,1.93-1.84c.44,0,.86.14,1.18.39l19.76-8.12c-.06-.17-.09-.35-.09-.54,0-1.03.87-1.87,1.95-1.87.89,0,1.64.57,1.88,1.35l19.73-.96c.52-1.61,2.09-2.78,3.95-2.78,2.28,0,4.13,1.77,4.13,3.94,0,.3-.04.58-.1.86l16.08,8.09c.24-.12.51-.18.79-.18.99,0,1.8.77,1.8,1.72Z"/>
      <path class="cls-2" d="M48.16,75.22c0,1.01-.85,1.82-1.9,1.82s-1.9-.81-1.9-1.82c0-.16.02-.32.06-.47l-29.33-10.91c-.51,1.31-1.84,2.25-3.4,2.25-2,0-3.63-1.55-3.63-3.47,0-1.68,1.26-3.08,2.92-3.4l.38-5.96.87.05-.37,5.85c1.93.08,3.46,1.6,3.46,3.46,0,.11,0,.22-.01.32l29.59,11.01c.34-.34.83-.55,1.36-.55,1.05,0,1.9.81,1.9,1.81Z"/>
    </g>
  </g>
</svg>